<?xml version="1.0" encoding="utf-8"?>
<!-- Generator: Adobe Illustrator 27.0.0, SVG Export Plug-In . SVG Version: 6.00 Build 0)  -->
<svg version="1.1" id="Calque_1" xmlns="http://www.w3.org/2000/svg" xmlns:xlink="http://www.w3.org/1999/xlink" x="0px" y="0px"
	 viewBox="0 0 500 220.13" style="enable-background:new 0 0 500 220.13;" xml:space="preserve">
<style type="text/css">
	.st0{fill:#3C3C3B;}
	.st1{fill:#E30613;}
	.st2{fill:#3AAA35;}
	.st3{fill:#FFED00;}
	.st4{font-family:'TimesNewRomanPS-BoldItalicMT';}
	.st5{font-size:17.1349px;}
</style>
<g>
	<path class="st0" d="M205.2,74.69c1.13,0.41,1.76,0.62,1.89,0.62c0.34,0,0.61-0.13,0.82-0.39c0.2-0.26,0.33-0.53,0.38-0.82h0.74
		v6.26h-0.67c-0.64-1.36-1.29-2.43-1.96-3.22c-1.25-1.45-2.65-2.17-4.23-2.17c-1.78,0-3.05,0.77-3.79,2.32
		c-0.75,1.55-1.12,3.63-1.12,6.23c0,1.92,0.22,3.49,0.66,4.73c0.82,2.32,2.35,3.48,4.58,3.48c1.37,0,2.63-0.38,3.81-1.15
		c0.68-0.45,1.47-1.16,2.39-2.13l0.79,0.66c-1.04,1.17-1.95,2.01-2.74,2.54c-1.4,0.93-2.96,1.4-4.67,1.4c-2.62,0-4.82-0.78-6.6-2.35
		c-1.96-1.73-2.95-4.07-2.95-7.01c0-2.91,0.94-5.27,2.82-7.07c1.76-1.69,3.93-2.54,6.49-2.54C202.95,74.07,204.07,74.28,205.2,74.69
		"/>
	<path class="st0" d="M222.55,86.2l-2.56-6.2h-0.22l-2.4,6.2H222.55z M212.57,91.83c0.64-0.04,1.15-0.34,1.55-0.87
		c0.25-0.34,0.61-1.09,1.08-2.25l5.91-14.66h0.74l5.93,14.07c0.67,1.58,1.16,2.59,1.49,3.05c0.33,0.46,0.8,0.68,1.4,0.66v0.68h-8.61
		v-0.68c0.87-0.03,1.43-0.11,1.71-0.22c0.27-0.11,0.41-0.4,0.41-0.86c0-0.21-0.07-0.53-0.21-0.95c-0.09-0.25-0.2-0.56-0.35-0.92
		l-0.68-1.62h-5.97c-0.39,1.06-0.64,1.75-0.75,2.08c-0.24,0.69-0.35,1.19-0.35,1.5c0,0.38,0.25,0.66,0.77,0.84
		c0.3,0.1,0.76,0.15,1.36,0.16v0.68h-5.43V91.83z"/>
	<path class="st0" d="M233.05,91.83c0.75-0.02,1.29-0.11,1.62-0.27c0.54-0.28,0.81-0.82,0.81-1.61V76.98c0-0.79-0.25-1.32-0.77-1.59
		c-0.31-0.16-0.87-0.26-1.66-0.3v-0.68h9.29v0.68c-0.83,0.04-1.4,0.13-1.71,0.28c-0.52,0.27-0.78,0.8-0.78,1.6v12.97
		c0,0.75,0.21,1.25,0.62,1.5c0.42,0.25,1.04,0.38,1.87,0.38v0.68h-9.29V91.83z"/>
	<path class="st0" d="M245.23,86.26h0.77c0.42,2,1.11,3.46,2.05,4.36c0.94,0.91,2.02,1.37,3.24,1.37c1.19,0,2.03-0.32,2.53-0.94
		c0.5-0.62,0.75-1.28,0.75-1.97c0-0.8-0.26-1.45-0.78-1.96c-0.35-0.33-1.04-0.76-2.1-1.29l-1.7-0.86c-1.68-0.85-2.86-1.7-3.55-2.54
		c-0.69-0.84-1.04-1.87-1.04-3.1c0-1.31,0.46-2.53,1.37-3.67c0.91-1.13,2.32-1.7,4.21-1.7c0.96,0,1.89,0.15,2.79,0.44
		c0.9,0.3,1.41,0.44,1.54,0.44c0.29,0,0.49-0.09,0.6-0.26c0.11-0.17,0.2-0.39,0.27-0.67h0.79v5.83h-0.74
		c-0.35-1.35-0.96-2.52-1.83-3.49c-0.87-0.98-1.94-1.46-3.19-1.46c-0.88,0-1.58,0.24-2.09,0.74c-0.51,0.49-0.77,1.09-0.77,1.79
		c0,0.85,0.24,1.48,0.72,1.9c0.47,0.43,1.53,1.05,3.17,1.88l1.96,0.99c0.87,0.44,1.58,0.94,2.1,1.48c0.97,1.01,1.46,2.24,1.46,3.69
		c0,1.35-0.52,2.62-1.57,3.82c-1.04,1.19-2.71,1.8-5.01,1.8c-0.53,0-1.06-0.05-1.61-0.15c-0.54-0.1-1.07-0.25-1.6-0.46l-0.51-0.2
		c-0.12-0.04-0.23-0.07-0.34-0.09c-0.11-0.02-0.21-0.03-0.28-0.03c-0.27,0-0.46,0.08-0.56,0.24c-0.1,0.16-0.19,0.39-0.27,0.69h-0.77
		V86.26z"/>
	<path class="st0" d="M261.34,86.26h0.77c0.43,2,1.11,3.46,2.05,4.36c0.94,0.91,2.02,1.37,3.24,1.37c1.18,0,2.03-0.32,2.52-0.94
		c0.5-0.62,0.75-1.28,0.75-1.97c0-0.8-0.26-1.45-0.78-1.96c-0.35-0.33-1.04-0.76-2.09-1.29l-1.69-0.86
		c-1.68-0.85-2.87-1.7-3.56-2.54c-0.69-0.84-1.04-1.87-1.04-3.1c0-1.31,0.46-2.53,1.37-3.67c0.91-1.13,2.32-1.7,4.21-1.7
		c0.96,0,1.89,0.15,2.79,0.44c0.89,0.3,1.41,0.44,1.54,0.44c0.29,0,0.49-0.09,0.6-0.26c0.11-0.17,0.2-0.39,0.27-0.67h0.79v5.83
		h-0.74c-0.34-1.35-0.96-2.52-1.83-3.49s-1.94-1.46-3.19-1.46c-0.88,0-1.58,0.24-2.09,0.74c-0.51,0.49-0.77,1.09-0.77,1.79
		c0,0.85,0.24,1.48,0.72,1.9c0.47,0.43,1.53,1.05,3.17,1.88l1.96,0.99c0.88,0.44,1.58,0.94,2.1,1.48c0.97,1.01,1.46,2.24,1.46,3.69
		c0,1.35-0.52,2.62-1.57,3.82c-1.04,1.19-2.71,1.8-5.01,1.8c-0.53,0-1.06-0.05-1.6-0.15c-0.54-0.1-1.08-0.25-1.6-0.46l-0.51-0.2
		c-0.12-0.04-0.24-0.07-0.34-0.09c-0.11-0.02-0.21-0.03-0.28-0.03c-0.27,0-0.46,0.08-0.56,0.24c-0.1,0.16-0.19,0.39-0.27,0.69h-0.77
		V86.26z"/>
	<path class="st0" d="M276.95,92.51v-0.68c0.76-0.03,1.3-0.13,1.62-0.31c0.49-0.28,0.74-0.8,0.74-1.57V76.98
		c0-0.78-0.25-1.3-0.77-1.57c-0.29-0.16-0.83-0.27-1.6-0.31v-0.68h15.32v5.4h-0.65c-0.34-1.73-0.91-2.91-1.72-3.54
		c-0.81-0.64-2.29-0.95-4.42-0.95c-0.82,0-1.33,0.08-1.55,0.25s-0.33,0.51-0.33,1.02v6.2c1.52,0.02,2.54-0.26,3.08-0.83
		c0.54-0.57,0.95-1.61,1.23-3.13h0.67v9.05h-0.67c-0.19-1.52-0.58-2.6-1.16-3.22c-0.58-0.63-1.64-0.93-3.15-0.93v6.48
		c0,0.57,0.15,0.95,0.44,1.15c0.29,0.21,0.88,0.31,1.78,0.31c1.7,0,3.08-0.33,4.16-0.99c1.07-0.66,2.02-1.91,2.86-3.73h0.74
		l-1.08,5.57H276.95z"/>
	<path class="st0" d="M303.99,91.83c0.99-0.03,1.62-0.22,1.91-0.57c0.29-0.35,0.43-0.87,0.43-1.56V77.02
		c-0.82-0.92-1.32-1.46-1.51-1.62c-0.19-0.16-0.45-0.26-0.78-0.3v-0.68h5.64l9.14,11.19h0.13v-7.87c0-0.91-0.16-1.56-0.49-1.95
		c-0.32-0.39-0.98-0.62-1.96-0.7v-0.68h5.71v0.68c-0.83,0.14-1.39,0.32-1.67,0.56c-0.28,0.24-0.42,0.76-0.42,1.57v15.78h-0.74
		l-11.7-14.32h-0.18v10.5c0,0.82,0.11,1.4,0.34,1.75c0.35,0.55,1.08,0.85,2.18,0.89v0.68h-6.02V91.83z"/>
	<path class="st0" d="M334.55,86.2l-2.56-6.2h-0.22l-2.4,6.2H334.55z M324.57,91.83c0.64-0.04,1.15-0.34,1.55-0.87
		c0.25-0.34,0.61-1.09,1.08-2.25l5.91-14.66h0.74l5.93,14.07c0.67,1.58,1.16,2.59,1.49,3.05c0.33,0.46,0.8,0.68,1.4,0.66v0.68h-8.61
		v-0.68c0.87-0.03,1.43-0.11,1.7-0.22c0.27-0.11,0.41-0.4,0.41-0.86c0-0.21-0.07-0.53-0.21-0.95c-0.09-0.25-0.2-0.56-0.35-0.92
		l-0.68-1.62h-5.97c-0.39,1.06-0.64,1.75-0.75,2.08c-0.23,0.69-0.35,1.19-0.35,1.5c0,0.38,0.25,0.66,0.77,0.84
		c0.3,0.1,0.76,0.15,1.36,0.16v0.68h-5.42V91.83z"/>
	<path class="st0" d="M343.36,74.41h16.01l0.02,5.4h-0.77c-0.25-1.93-0.97-3.24-2.16-3.92c-0.67-0.37-1.66-0.58-2.99-0.62v14.11
		c0,0.99,0.17,1.64,0.52,1.96c0.34,0.32,1.05,0.48,2.13,0.48v0.68h-9.48v-0.68c1.04,0,1.73-0.17,2.07-0.49
		c0.34-0.33,0.51-0.98,0.51-1.96V75.28c-1.3,0.04-2.29,0.24-2.99,0.62c-1.27,0.7-1.99,2.01-2.15,3.92h-0.77L343.36,74.41z"/>
	<path class="st0" d="M362.15,91.83c0.75-0.02,1.29-0.11,1.62-0.27c0.54-0.28,0.81-0.82,0.81-1.61V76.98c0-0.79-0.25-1.32-0.77-1.59
		c-0.31-0.16-0.87-0.26-1.66-0.3v-0.68h9.29v0.68c-0.83,0.04-1.4,0.13-1.71,0.28c-0.52,0.27-0.78,0.8-0.78,1.6v12.97
		c0,0.75,0.21,1.25,0.62,1.5c0.42,0.25,1.04,0.38,1.87,0.38v0.68h-9.29V91.83z"/>
	<path class="st0" d="M387.8,88.57c0.4-1.29,0.6-2.97,0.6-5.05c0-2.85-0.42-5-1.27-6.45c-0.84-1.45-1.99-2.17-3.44-2.17
		c-2.01,0-3.39,1.2-4.14,3.62c-0.39,1.28-0.59,2.95-0.59,5c0,2.08,0.2,3.77,0.6,5.05c0.74,2.38,2.11,3.57,4.12,3.57
		C385.69,92.14,387.06,90.95,387.8,88.57 M390.39,76.62c1.83,1.79,2.74,4.09,2.74,6.9c0,2.81-0.91,5.12-2.74,6.9
		c-1.78,1.74-4.01,2.61-6.68,2.61c-2.84,0-5.15-0.95-6.94-2.86c-1.67-1.8-2.51-3.97-2.51-6.51c0-2.81,0.87-5.11,2.62-6.92
		c1.76-1.83,4.04-2.75,6.83-2.75C386.39,74.01,388.61,74.88,390.39,76.62"/>
	<path class="st0" d="M395.83,91.83c0.99-0.03,1.62-0.22,1.91-0.57c0.28-0.35,0.43-0.87,0.43-1.56V77.02
		c-0.82-0.92-1.32-1.46-1.51-1.62c-0.19-0.16-0.45-0.26-0.78-0.3v-0.68h5.63l9.14,11.19h0.13v-7.87c0-0.91-0.16-1.56-0.49-1.95
		c-0.32-0.39-0.98-0.62-1.96-0.7v-0.68h5.71v0.68c-0.83,0.14-1.39,0.32-1.67,0.56c-0.28,0.24-0.42,0.76-0.42,1.57v15.78h-0.74
		l-11.7-14.32h-0.18v10.5c0,0.82,0.11,1.4,0.34,1.75c0.35,0.55,1.08,0.85,2.18,0.89v0.68h-6.02V91.83z"/>
	<path class="st0" d="M426.39,86.2l-2.56-6.2h-0.22l-2.4,6.2H426.39z M416.41,91.83c0.64-0.04,1.15-0.34,1.55-0.87
		c0.25-0.34,0.61-1.09,1.08-2.25l5.91-14.66h0.74l5.93,14.07c0.67,1.58,1.16,2.59,1.49,3.05c0.33,0.46,0.8,0.68,1.4,0.66v0.68h-8.61
		v-0.68c0.87-0.03,1.43-0.11,1.7-0.22c0.27-0.11,0.41-0.4,0.41-0.86c0-0.21-0.07-0.53-0.21-0.95c-0.09-0.25-0.2-0.56-0.35-0.92
		l-0.68-1.62h-5.97c-0.39,1.06-0.64,1.75-0.75,2.08c-0.23,0.69-0.35,1.19-0.35,1.5c0,0.38,0.25,0.66,0.77,0.84
		c0.3,0.1,0.76,0.15,1.36,0.16v0.68h-5.43V91.83z"/>
	<path class="st0" d="M436.94,91.83c0.73-0.03,1.25-0.12,1.56-0.29c0.53-0.28,0.79-0.81,0.79-1.6V76.98c0-0.78-0.25-1.3-0.75-1.57
		c-0.29-0.16-0.83-0.27-1.6-0.31v-0.68h9.29v0.68c-1.08,0.04-1.8,0.19-2.16,0.45c-0.36,0.27-0.54,0.93-0.54,1.99v12.66
		c0,0.59,0.15,0.99,0.46,1.18c0.31,0.19,0.9,0.29,1.79,0.29c1.6,0,2.95-0.36,4.03-1.07c1.09-0.71,2.02-2.09,2.81-4.15h0.78
		l-1.08,6.07h-15.4V91.83z"/>
	<path class="st0" d="M455.95,92.51v-0.68c0.76-0.03,1.3-0.13,1.62-0.31c0.49-0.28,0.74-0.8,0.74-1.57V76.98
		c0-0.78-0.25-1.3-0.77-1.57c-0.29-0.16-0.83-0.27-1.6-0.31v-0.68h15.32v5.4h-0.65c-0.34-1.73-0.91-2.91-1.72-3.54
		c-0.81-0.64-2.29-0.95-4.42-0.95c-0.82,0-1.33,0.08-1.55,0.25c-0.22,0.17-0.33,0.51-0.33,1.02v6.2c1.51,0.02,2.54-0.26,3.08-0.83
		c0.54-0.57,0.95-1.61,1.23-3.13h0.67v9.05h-0.67c-0.19-1.52-0.58-2.6-1.16-3.22c-0.58-0.63-1.64-0.93-3.15-0.93v6.48
		c0,0.57,0.15,0.95,0.44,1.15c0.29,0.21,0.88,0.31,1.78,0.31c1.7,0,3.08-0.33,4.16-0.99c1.07-0.66,2.02-1.91,2.86-3.73h0.74
		l-1.08,5.57H455.95z"/>
	<path class="st0" d="M198.15,118.12c0.16,0.22,0.51,0.33,1.04,0.33c1.45,0,2.63-0.51,3.56-1.54c0.93-1.03,1.39-3,1.39-5.91
		c0-1.73-0.25-3.23-0.75-4.47c-0.81-2-2.17-3.01-4.09-3.01c-0.64,0-1.05,0.14-1.24,0.41c-0.13,0.17-0.19,0.51-0.19,1.02v12.08
		C197.89,117.53,197.99,117.9,198.15,118.12 M191.89,118.66c0.61-0.04,1.05-0.13,1.32-0.27c0.47-0.24,0.71-0.7,0.71-1.35v-12.11
		c0-0.63-0.23-1.07-0.68-1.32c-0.27-0.14-0.72-0.25-1.36-0.3v-0.62h7.45c3,0,5.3,0.81,6.87,2.42c1.44,1.47,2.16,3.45,2.16,5.92
		c0,2.22-0.72,4.1-2.17,5.64c-1.63,1.73-3.83,2.6-6.62,2.6h-7.7V118.66z"/>
	<path class="st0" d="M209.68,119.29v-0.62c0.7-0.03,1.19-0.12,1.49-0.29c0.45-0.26,0.68-0.74,0.68-1.44v-11.89
		c0-0.72-0.23-1.19-0.7-1.44c-0.27-0.15-0.76-0.25-1.47-0.29v-0.62h14.04v4.95h-0.6c-0.31-1.58-0.83-2.67-1.58-3.25
		c-0.75-0.58-2.09-0.87-4.06-0.87c-0.74,0-1.22,0.08-1.42,0.23c-0.2,0.16-0.3,0.47-0.3,0.93v5.68c1.39,0.02,2.33-0.24,2.82-0.76
		c0.49-0.52,0.87-1.48,1.13-2.87h0.62v8.29h-0.62c-0.17-1.4-0.53-2.38-1.07-2.96c-0.53-0.57-1.5-0.86-2.88-0.86v5.94
		c0,0.52,0.13,0.87,0.4,1.06c0.26,0.19,0.81,0.28,1.64,0.28c1.56,0,2.82-0.31,3.81-0.91c0.98-0.61,1.86-1.74,2.62-3.42h0.68
		l-0.99,5.11H209.68z"/>
	<path class="st0" d="M232.73,113.56h0.7c0.39,1.84,1.01,3.17,1.88,4c0.87,0.83,1.86,1.25,2.97,1.25c1.09,0,1.86-0.29,2.32-0.86
		c0.46-0.57,0.69-1.17,0.69-1.81c0-0.74-0.24-1.33-0.72-1.8c-0.32-0.3-0.96-0.7-1.92-1.18l-1.55-0.79
		c-1.54-0.78-2.63-1.56-3.26-2.33c-0.64-0.77-0.95-1.71-0.95-2.84c0-1.2,0.42-2.32,1.26-3.36c0.84-1.04,2.12-1.56,3.86-1.56
		c0.88,0,1.73,0.14,2.56,0.41c0.82,0.27,1.29,0.41,1.41,0.41c0.26,0,0.45-0.08,0.55-0.23c0.1-0.16,0.18-0.36,0.25-0.62h0.73v5.35
		h-0.68c-0.32-1.24-0.88-2.3-1.68-3.2c-0.8-0.9-1.78-1.34-2.93-1.34c-0.8,0-1.44,0.22-1.91,0.68c-0.47,0.45-0.7,1-0.7,1.65
		c0,0.77,0.22,1.36,0.66,1.74c0.43,0.39,1.4,0.97,2.9,1.72l1.8,0.91c0.8,0.41,1.44,0.86,1.92,1.36c0.89,0.92,1.34,2.05,1.34,3.38
		c0,1.24-0.48,2.4-1.43,3.5c-0.96,1.1-2.49,1.64-4.6,1.64c-0.48,0-0.97-0.05-1.47-0.14c-0.5-0.09-0.99-0.24-1.47-0.43l-0.47-0.18
		c-0.11-0.03-0.21-0.06-0.32-0.08c-0.1-0.02-0.18-0.03-0.26-0.03c-0.25,0-0.42,0.08-0.52,0.22c-0.09,0.15-0.17,0.36-0.24,0.63h-0.7
		V113.56z"/>
	<path class="st0" d="M257.18,98.26c-0.15,0.18-0.39,0.37-0.7,0.57l-3.27,2.17h-1.28l3.14-3.87c0.12-0.16,0.26-0.29,0.41-0.4
		c0.26-0.19,0.54-0.29,0.83-0.29c0.34,0,0.6,0.11,0.8,0.32c0.2,0.21,0.3,0.46,0.3,0.77C257.41,97.83,257.34,98.08,257.18,98.26
		 M245.94,119.29v-0.62c0.7-0.03,1.19-0.12,1.49-0.29c0.45-0.26,0.68-0.74,0.68-1.44v-11.89c0-0.72-0.23-1.19-0.7-1.44
		c-0.27-0.15-0.76-0.25-1.46-0.29v-0.62h14.04v4.95h-0.6c-0.31-1.58-0.84-2.67-1.58-3.25c-0.74-0.58-2.09-0.87-4.05-0.87
		c-0.75,0-1.22,0.08-1.42,0.23c-0.2,0.16-0.3,0.47-0.3,0.93v5.68c1.39,0.02,2.33-0.24,2.82-0.76c0.49-0.52,0.87-1.48,1.13-2.87h0.62
		v8.29h-0.62c-0.18-1.4-0.53-2.38-1.07-2.96c-0.54-0.57-1.5-0.86-2.88-0.86v5.94c0,0.52,0.13,0.87,0.4,1.06
		c0.26,0.19,0.81,0.28,1.64,0.28c1.55,0,2.82-0.31,3.81-0.91c0.98-0.61,1.86-1.74,2.62-3.42h0.68l-0.99,5.11H245.94z"/>
	<path class="st0" d="M274.43,102.96c1.04,0.38,1.62,0.57,1.73,0.57c0.31,0,0.56-0.12,0.75-0.36c0.18-0.24,0.3-0.49,0.35-0.75h0.68
		v5.74h-0.62c-0.59-1.25-1.18-2.23-1.79-2.94c-1.14-1.33-2.43-1.99-3.87-1.99c-1.63,0-2.79,0.71-3.48,2.13
		c-0.69,1.42-1.03,3.32-1.03,5.71c0,1.75,0.2,3.2,0.61,4.34c0.75,2.13,2.15,3.19,4.19,3.19c1.25,0,2.42-0.35,3.49-1.05
		c0.62-0.41,1.35-1.06,2.19-1.96l0.73,0.6c-0.95,1.07-1.79,1.84-2.51,2.32c-1.29,0.86-2.71,1.29-4.28,1.29
		c-2.4,0-4.42-0.72-6.04-2.16c-1.8-1.59-2.7-3.73-2.7-6.42c0-2.67,0.86-4.83,2.58-6.48c1.62-1.55,3.6-2.33,5.95-2.33
		C272.36,102.38,273.39,102.58,274.43,102.96"/>
	<path class="st0" d="M288.28,102.7v0.62c-0.95,0.03-1.58,0.18-1.89,0.44c-0.32,0.26-0.48,0.86-0.48,1.8v8.22
		c0,1.25,0.15,2.21,0.44,2.89c0.53,1.27,1.55,1.9,3.06,1.9c1.87,0,3.14-0.7,3.79-2.1c0.36-0.77,0.55-1.84,0.55-3.23v-7.51
		c0-0.88-0.16-1.48-0.48-1.82c-0.32-0.33-0.95-0.53-1.89-0.61v-0.62h5.36v0.62c-0.78,0.15-1.29,0.34-1.54,0.56
		c-0.25,0.22-0.38,0.73-0.38,1.52v7.85c0,2.08-0.5,3.7-1.5,4.83c-1,1.13-2.57,1.7-4.71,1.7c-2.8,0-4.72-0.85-5.75-2.53
		c-0.54-0.9-0.82-2.05-0.82-3.47v-8.21c0-0.92-0.12-1.5-0.36-1.74c-0.24-0.24-0.79-0.41-1.64-0.5v-0.62H288.28z"/>
	<path class="st0" d="M307.27,110.15c0.69-0.43,1.03-1.42,1.03-2.97c0-0.95-0.13-1.7-0.39-2.25c-0.46-0.93-1.28-1.4-2.48-1.4
		c-0.65,0-1.08,0.08-1.28,0.25c-0.2,0.17-0.3,0.43-0.3,0.81v6.24C305.44,110.8,306.59,110.57,307.27,110.15 M297.76,118.66
		c0.83-0.04,1.39-0.2,1.69-0.47c0.3-0.27,0.45-0.86,0.45-1.77v-10.86c0-0.94-0.18-1.56-0.54-1.85c-0.24-0.19-0.78-0.32-1.61-0.39
		v-0.62h7.84c1.63,0,2.94,0.17,3.95,0.51c1.95,0.7,2.93,1.95,2.93,3.75c0,1.33-0.51,2.38-1.54,3.15c-0.78,0.57-1.61,0.94-2.48,1.1
		l5.18,6.99c0.13,0.19,0.27,0.32,0.43,0.38c0.15,0.06,0.34,0.1,0.56,0.11v0.59h-5.08l-5.69-7.67h-0.01v4.81
		c0,0.86,0.14,1.44,0.43,1.74c0.29,0.3,0.86,0.47,1.71,0.5v0.62h-8.24V118.66z"/>
	<path class="st0" d="M315.48,118.66c0.69-0.02,1.18-0.1,1.49-0.25c0.49-0.26,0.74-0.74,0.74-1.47v-11.89c0-0.73-0.23-1.21-0.7-1.45
		c-0.29-0.15-0.8-0.24-1.52-0.27v-0.62H324v0.62c-0.76,0.03-1.28,0.12-1.57,0.26c-0.48,0.24-0.72,0.73-0.72,1.47v11.89
		c0,0.69,0.19,1.14,0.57,1.38c0.38,0.23,0.95,0.35,1.71,0.35v0.62h-8.52V118.66z"/>
	<path class="st0" d="M325.34,102.7h14.67l0.03,4.95h-0.71c-0.23-1.77-0.89-2.97-1.97-3.6c-0.61-0.35-1.52-0.53-2.74-0.57v12.93
		c0,0.91,0.16,1.5,0.47,1.8c0.31,0.3,0.97,0.44,1.96,0.44v0.62h-8.68v-0.62c0.95,0,1.58-0.15,1.89-0.45c0.32-0.3,0.47-0.9,0.47-1.79
		v-12.93c-1.19,0.04-2.1,0.22-2.73,0.57c-1.17,0.64-1.83,1.84-1.98,3.6h-0.7L325.34,102.7z"/>
	<path class="st0" d="M352.7,98.26c-0.16,0.18-0.39,0.37-0.7,0.57l-3.28,2.17h-1.28l3.14-3.87c0.13-0.16,0.27-0.29,0.41-0.4
		c0.26-0.19,0.54-0.29,0.83-0.29c0.34,0,0.6,0.11,0.8,0.32c0.2,0.21,0.3,0.46,0.3,0.77C352.93,97.83,352.86,98.08,352.7,98.26
		 M341.46,119.29v-0.62c0.7-0.03,1.19-0.12,1.49-0.29c0.45-0.26,0.68-0.74,0.68-1.44v-11.89c0-0.72-0.23-1.19-0.7-1.44
		c-0.27-0.15-0.76-0.25-1.46-0.29v-0.62h14.04v4.95h-0.6c-0.31-1.58-0.83-2.67-1.58-3.25c-0.74-0.58-2.09-0.87-4.05-0.87
		c-0.75,0-1.22,0.08-1.42,0.23c-0.2,0.16-0.3,0.47-0.3,0.93v5.68c1.39,0.02,2.33-0.24,2.82-0.76c0.49-0.52,0.87-1.48,1.13-2.87h0.62
		v8.29h-0.62c-0.17-1.4-0.53-2.38-1.06-2.96c-0.54-0.57-1.5-0.86-2.89-0.86v5.94c0,0.52,0.13,0.87,0.4,1.06
		c0.27,0.19,0.82,0.28,1.64,0.28c1.56,0,2.83-0.31,3.81-0.91c0.99-0.61,1.86-1.74,2.62-3.42h0.68l-0.99,5.11H341.46z"/>
	<path class="st0" d="M364.52,113.56h0.7c0.39,1.84,1.02,3.17,1.88,4c0.87,0.83,1.86,1.25,2.97,1.25c1.09,0,1.86-0.29,2.32-0.86
		c0.46-0.57,0.68-1.17,0.68-1.81c0-0.74-0.24-1.33-0.71-1.8c-0.32-0.3-0.96-0.7-1.92-1.18l-1.55-0.79
		c-1.54-0.78-2.63-1.56-3.26-2.33c-0.64-0.77-0.95-1.71-0.95-2.84c0-1.2,0.42-2.32,1.26-3.36c0.84-1.04,2.13-1.56,3.86-1.56
		c0.88,0,1.73,0.14,2.56,0.41c0.82,0.27,1.29,0.41,1.41,0.41c0.26,0,0.44-0.08,0.55-0.23c0.1-0.16,0.18-0.36,0.24-0.62h0.73v5.35
		h-0.68c-0.31-1.24-0.87-2.3-1.68-3.2c-0.8-0.9-1.78-1.34-2.92-1.34c-0.81,0-1.45,0.22-1.91,0.68c-0.47,0.45-0.71,1-0.71,1.65
		c0,0.77,0.22,1.36,0.66,1.74c0.43,0.39,1.4,0.97,2.9,1.72l1.8,0.91c0.8,0.41,1.44,0.86,1.92,1.36c0.89,0.92,1.34,2.05,1.34,3.38
		c0,1.24-0.48,2.4-1.43,3.5c-0.96,1.1-2.49,1.64-4.6,1.64c-0.48,0-0.97-0.05-1.47-0.14c-0.5-0.09-0.99-0.24-1.47-0.43l-0.47-0.18
		c-0.11-0.03-0.22-0.06-0.32-0.08c-0.1-0.02-0.18-0.03-0.26-0.03c-0.25,0-0.42,0.08-0.52,0.22c-0.09,0.15-0.17,0.36-0.24,0.63h-0.7
		V113.56z"/>
	<path class="st0" d="M390.55,115.68c0.37-1.18,0.55-2.72,0.55-4.62c0-2.62-0.39-4.59-1.16-5.91c-0.78-1.32-1.82-1.99-3.15-1.99
		c-1.84,0-3.11,1.11-3.79,3.32c-0.35,1.18-0.54,2.7-0.54,4.58c0,1.91,0.18,3.45,0.55,4.62c0.68,2.18,1.93,3.28,3.78,3.28
		C388.61,118.95,389.86,117.86,390.55,115.68 M392.92,104.73c1.67,1.63,2.51,3.74,2.51,6.33c0,2.58-0.84,4.69-2.51,6.33
		c-1.64,1.59-3.68,2.39-6.13,2.39c-2.6,0-4.72-0.88-6.37-2.63c-1.53-1.64-2.3-3.64-2.3-5.97c0-2.57,0.8-4.69,2.41-6.34
		c1.62-1.68,3.7-2.52,6.26-2.52C389.25,102.33,391.29,103.13,392.92,104.73"/>
	<path class="st0" d="M408.92,102.96c1.04,0.38,1.62,0.57,1.74,0.57c0.31,0,0.56-0.12,0.74-0.36c0.19-0.24,0.3-0.49,0.35-0.75h0.68
		v5.74h-0.62c-0.59-1.25-1.18-2.23-1.79-2.94c-1.14-1.33-2.43-1.99-3.87-1.99c-1.64,0-2.8,0.71-3.48,2.13
		c-0.68,1.42-1.03,3.32-1.03,5.71c0,1.75,0.2,3.2,0.61,4.34c0.75,2.13,2.15,3.19,4.19,3.19c1.26,0,2.42-0.35,3.5-1.05
		c0.62-0.41,1.34-1.06,2.18-1.96l0.73,0.6c-0.95,1.07-1.79,1.84-2.51,2.32c-1.29,0.86-2.71,1.29-4.28,1.29
		c-2.41,0-4.42-0.72-6.05-2.16c-1.8-1.59-2.7-3.73-2.7-6.42c0-2.67,0.86-4.83,2.58-6.48c1.62-1.55,3.6-2.33,5.95-2.33
		C406.86,102.38,407.88,102.58,408.92,102.96"/>
	<path class="st0" d="M414.53,118.66c0.69-0.02,1.19-0.1,1.49-0.25c0.49-0.26,0.74-0.74,0.74-1.47v-11.89c0-0.73-0.24-1.21-0.7-1.45
		c-0.28-0.15-0.8-0.24-1.52-0.27v-0.62h8.52v0.62c-0.76,0.03-1.28,0.12-1.57,0.26c-0.48,0.24-0.71,0.73-0.71,1.47v11.89
		c0,0.69,0.19,1.14,0.57,1.38c0.38,0.23,0.95,0.35,1.71,0.35v0.62h-8.52V118.66z"/>
	<path class="st0" d="M433.33,113.5l-2.35-5.68h-0.2l-2.2,5.68H433.33z M424.19,118.66c0.58-0.04,1.06-0.31,1.42-0.8
		c0.23-0.31,0.56-1,0.99-2.06l5.41-13.44h0.68l5.44,12.9c0.61,1.45,1.06,2.38,1.37,2.8c0.3,0.42,0.73,0.62,1.28,0.61v0.62h-7.89
		v-0.62c0.79-0.03,1.32-0.1,1.56-0.21c0.25-0.1,0.38-0.37,0.38-0.79c0-0.19-0.06-0.48-0.19-0.88c-0.08-0.23-0.19-0.51-0.32-0.84
		l-0.62-1.49h-5.47c-0.36,0.98-0.59,1.61-0.69,1.91c-0.21,0.63-0.32,1.09-0.32,1.38c0,0.35,0.23,0.61,0.7,0.77
		c0.28,0.09,0.7,0.14,1.25,0.14v0.62h-4.97V118.66z"/>
	<path class="st0" d="M441.9,118.66c0.67-0.03,1.14-0.11,1.43-0.27c0.49-0.25,0.73-0.74,0.73-1.46v-11.89c0-0.72-0.23-1.2-0.69-1.44
		c-0.27-0.15-0.76-0.24-1.46-0.28v-0.62h8.52v0.62c-0.99,0.03-1.65,0.17-1.98,0.42c-0.33,0.24-0.5,0.85-0.5,1.82v11.6
		c0,0.54,0.14,0.9,0.43,1.08c0.28,0.17,0.83,0.26,1.64,0.26c1.47,0,2.7-0.33,3.7-0.97c0.99-0.65,1.86-1.92,2.58-3.81h0.72
		l-0.99,5.56H441.9V118.66z"/>
	<path class="st0" d="M458.24,119.29v-0.62c0.7-0.03,1.19-0.12,1.49-0.29c0.45-0.26,0.68-0.74,0.68-1.44v-11.89
		c0-0.72-0.23-1.19-0.7-1.44c-0.27-0.15-0.76-0.25-1.46-0.29v-0.62h14.04v4.95h-0.6c-0.31-1.58-0.84-2.67-1.58-3.25
		c-0.75-0.58-2.09-0.87-4.06-0.87c-0.74,0-1.22,0.08-1.42,0.23c-0.2,0.16-0.3,0.47-0.3,0.93v5.68c1.39,0.02,2.33-0.24,2.82-0.76
		c0.5-0.52,0.87-1.48,1.14-2.87h0.62v8.29h-0.62c-0.18-1.4-0.53-2.38-1.07-2.96c-0.53-0.57-1.5-0.86-2.88-0.86v5.94
		c0,0.52,0.13,0.87,0.4,1.06c0.26,0.19,0.81,0.28,1.64,0.28c1.56,0,2.82-0.31,3.81-0.91c0.98-0.61,1.86-1.74,2.62-3.42h0.68
		l-0.99,5.11H458.24z"/>
</g>
<g>
	<path class="st1" d="M120.41,83.16c0-0.77-0.01-1.53-0.02-2.3h-5.68c0,0.93-0.01,1.86-0.01,2.79c0.02,5.86,0.04,11.72,0.05,17.58
		c0.01,4.98,0.01,9.95,0.02,14.93c0,0.77,0,1.55,0,2.32c-0.05,0.01-0.1,0.03-0.16,0.04c-0.07-0.1-0.15-0.19-0.21-0.29
		c-2.39-3.93-4.78-7.87-7.16-11.81c-1.64-2.72-3.25-5.45-4.89-8.17c-2.46-4.08-4.94-8.16-7.4-12.23c-1.04-1.72-2.09-3.45-3.13-5.17
		h-6.99c0.03,6.29,0.03,12.58,0.03,18.87c0.01,7.08,0.02,14.15,0.03,21.23c0,2.47,0.01,4.95,0.01,7.42h5.75
		c-0.01-1.52,0-3.03,0-4.55c0.01-9.77,0.02-19.54,0.03-29.31c0-0.16,0.02-0.34-0.02-0.49c-0.26-0.96,0.18-1.91,0.05-2.86
		c-0.01-0.09,0.02-0.22,0.14-0.24c0.11-0.02,0.18,0.07,0.23,0.16c0.98,1.74,2.05,3.43,3.08,5.14c2.3,3.8,4.56,7.62,6.84,11.43
		c2.57,4.3,5.15,8.6,7.73,12.91c1.56,2.6,3.13,5.2,4.68,7.81h7.19c-0.04-7.09-0.07-14.18-0.1-21.27
		C120.47,99.12,120.44,91.14,120.41,83.16z"/>
	<path class="st1" d="M98.13,118.51c-1.11-0.28-2.18-0.64-3.2-1.14c-0.93-0.46-1.47-2.05-0.93-2.89c0.46-0.71,1.1-1.25,1.99-1.39
		c0.57-0.09,1.13-0.1,1.7-0.05c1.25,0.11,2.19,0.9,2.53,2.11c0.02,0.07,0.03,0.14,0.04,0.21c0.02,0,0.03-0.01,0.05,0
		c0.07,0,0.13,0.01,0.2,0.03h1.72c-0.08-0.82-0.34-1.59-0.78-2.27c-1.03-1.6-2.57-2.22-4.54-2.21c-0.8-0.08-1.7,0.17-2.48,0.57
		c-1.88,0.94-2.56,2.61-2.4,4.66c0.15,1.88,1.18,3.11,2.9,3.8c1.41,0.56,2.9,0.87,4.3,1.46c1.25,0.53,1.9,1.92,1.44,3.2
		c-0.45,1.29-1.42,1.85-2.71,1.97c-2.16,0.2-4.04-0.71-4.5-2.82c-0.03-0.14-0.06-0.27-0.09-0.38h-1.89c0.07,1.42,0.51,2.7,1.5,3.73
		c1.47,1.54,3.34,1.84,5.34,1.58c1.97-0.26,3.4-1.32,4.04-3.23c0.64-1.9,0.5-3.74-0.96-5.28C100.5,119.26,99.33,118.81,98.13,118.51
		z"/>
	<path class="st1" d="M107.85,88.48c-1.11-0.28-2.18-0.64-3.2-1.14c-0.93-0.46-1.47-2.05-0.93-2.89c0.46-0.71,1.1-1.25,1.99-1.39
		c0.57-0.09,1.13-0.1,1.7-0.05c1.25,0.11,2.19,0.9,2.53,2.11c0.02,0.07,0.03,0.14,0.04,0.21c0.02,0,0.03-0.01,0.05,0
		c0.07,0,0.13,0.01,0.2,0.03h1.72c-0.08-0.82-0.34-1.59-0.78-2.27c-1.03-1.6-2.57-2.22-4.54-2.21c-0.8-0.08-1.7,0.17-2.48,0.57
		c-1.88,0.94-2.56,2.61-2.4,4.66c0.15,1.88,1.18,3.11,2.9,3.8c1.41,0.56,2.9,0.87,4.3,1.46c1.25,0.53,1.9,1.92,1.44,3.2
		c-0.45,1.29-1.42,1.85-2.71,1.97c-2.16,0.2-4.04-0.71-4.5-2.82c-0.03-0.14-0.06-0.27-0.09-0.38h-1.89c0.07,1.42,0.51,2.7,1.5,3.73
		c1.47,1.54,3.34,1.84,5.34,1.58c1.97-0.26,3.4-1.32,4.04-3.23c0.64-1.9,0.5-3.74-0.96-5.28C110.22,89.22,109.05,88.77,107.85,88.48
		z"/>
</g>
<g>
	<path class="st2" d="M91.52,156.37c-1.07,0-2.13,0-3.2,0c-0.25,0-0.5,0.01-0.73,0.17c-3.16,2.17-6.7,2.88-10.46,2.66
		c-1.64-0.1-3.28-0.12-4.9-0.43c-0.48-0.09-0.91-0.36-1.42-0.36c-0.12,0-0.26-0.05-0.26-0.22c0-0.13,0.12-0.15,0.22-0.2
		c2.54-1.19,5.2-2.12,7.71-3.39c1.38-0.7,2.73-1.49,3.98-2.4c0.38-0.28,0.35-0.9,0.4-1.38c0.21-2.02-0.1-3.96-0.84-5.86
		c-0.49-1.26-1.27-2.37-1.66-3.68c-0.14-0.48-0.11-0.55,0.38-0.46c2.11,0.39,4.09,1.05,5.87,2.33c1.99,1.42,3.56,3.16,4.49,5.44
		c0.1,0.26,0.3,0.33,0.53,0.41c2.69,0.88,5.39,1.75,8.08,2.68c0.9,0.31,1.83,0.56,2.68,1.01c0.41,0.22,0.33,0.35,0,0.57
		c-0.79,0.51-1.65,0.83-2.53,1.15c-1.04,0.38-2.07,0.78-3.06,1.27c-1.13,0.56-2.32,0.66-3.54,0.66c-0.58,0-1.15,0-1.73,0
		C91.52,156.34,91.52,156.35,91.52,156.37z"/>
	<path class="st2" d="M70.89,146.34c-1.84,0.34-0.69,0.05-2.52,0.4c-1.38,0.27-4.37,0.25-5.1,0.32c-2.25,0.17-4.67,0.17-6.25-0.18
		c-0.6-0.13-1.3-0.28-2.27-0.56c-2.41-0.69-4.5-2.27-5.71-4.48c-0.43-0.78-0.64-1.47-0.79-2.16l2.34,0.29
		c0.25,0.03,0.51,0.08,0.75,0.13c2.55,0.51,4.47,0.47,7.17,0.28c1.91-0.13,3.82-0.15,5.95-0.59c0.6,0.03,0.2,0.37,0.24-0.22
		c0.18-2.63,0.52-5.29,1.03-7.89c0.25-1.27,0.64-2.5,1.15-3.69c0.34-0.79,0.65-1.51,0.83-2c0,0,0,0,0.41,0.3
		c1.12,0.82,1.84,1.97,2.29,3.25c1.01,2.91,1.53,8.15,1.23,11.24c-0.13,1.37-0.54,5.21-0.54,5.21L70.89,146.34z"/>
	<path class="st2" d="M80.36,148.61c-0.06-1.72-0.24-3.42-0.58-5.11c-0.59-2.93-1.66-5.66-3.33-8.13c-0.74-1.09-1.57-2.12-2.56-2.99
		c0.37,1.46-1.37,10.6-0.83,14.37c0.12,0.83,0.06,0.8-0.75,0.94c-1.77,0.31-2.86,0.59-6.01,1.03c-1.6,0.28-2.95,0.29-3.79,0.29
		c-0.88-0.01-1.75-0.03-2.62-0.14c-0.32-0.04-0.53,0.02-0.56,0.42c-0.18,2.5,1.2,4.22,3.48,4.72c2.31,0.51,4.63,0.38,6.93,0
		c3.48-0.57,6.86-1.49,10.08-2.95c0.35-0.16,0.55-0.36,0.54-0.77C80.35,149.73,80.36,149.17,80.36,148.61z"/>
	<path class="st2" d="M90.99,56.02c-2.69,0.82-5.31,0.55-7.88-0.54c-0.12-0.05-0.24-0.11-0.35-0.19c-0.76-0.52-0.78-0.81-0.06-1.4
		c1.89-1.55,3.9-2.88,6.3-3.52c1.69-0.45,3.38-0.62,5.08-0.11c1.04,0.32,2.05,0.73,2.92,1.4c0.6,0.46,0.63,0.62,0.05,1.1
		C95.26,54.27,93.25,55.38,90.99,56.02z"/>
	<path class="st2" d="M112.14,49.81c-2.69-0.82-5.31-0.55-7.88,0.54c-0.12,0.05-0.24,0.11-0.35,0.19c-0.76,0.52-0.78,0.81-0.06,1.4
		c1.89,1.55,3.9,2.88,6.3,3.52c1.69,0.45,3.38,0.62,5.08,0.11c1.04-0.32,2.05-0.73,2.92-1.4c0.6-0.46,0.63-0.62,0.05-1.1
		C116.41,51.57,114.4,50.45,112.14,49.81z"/>
	<path class="st2" d="M63.77,119.19c0,0-0.24,1.65-7.77,10.96c-0.16,0.2-0.34,0.65-0.59,0.86l-0.53-0.12l-14.36-3.62
		c0,0-1,7.77,8.78,9.15l10.69,1.21C59.99,137.64,66.84,126.66,63.77,119.19z"/>
	<path class="st2" d="M69.3,61.82c0,0,4.27-14.02,9.75-15.14s6.9,0.84,6.9,0.84s-9.7,7.36-8.81,10.37c0,0,10.47,2.26,13.1,1.86
		C90.23,59.74,86.58,68.59,69.3,61.82z"/>
	<path class="st2" d="M131.5,59.15c0,0-5.72-13.48-11.29-14.02c-5.57-0.54-6.77,1.57-6.77,1.57s10.42,6.28,9.85,9.37
		c0,0-10.18,3.36-12.83,3.25C110.46,59.32,115.03,67.73,131.5,59.15z"/>
	<path class="st2" d="M58.02,70.16c0,0-4.34-21.89,12.44-20.84c0,0-5.12,7.33-4.51,14.72c0,0,11.76,3.39,16.24,1.93
		C82.18,65.98,82.52,76.19,58.02,70.16z"/>
	<path class="st2" d="M55.54,58.11c0,0-10.94-4.24-3.75,22.19c0,0,20.68,3.25,20.93-6.98c0,0-11.24,3.16-15.62,1.03
		C57.09,74.35,54.01,70.65,55.54,58.11z"/>
	<path class="st2" d="M45.89,91.69c0,0-10.72-19.5,0.8-23.26c0,0,0.27,11.9,2.05,15.74c0,0,5.68,0.68,14.17-1.84
		C62.92,82.32,65.57,89.72,45.89,91.69z"/>
	<path class="st2" d="M37.64,80.97c0,0-9.05,4.24,6.41,22.58c0,0,13.87-1.09,15.81-10.32c0,0-13.57,4.43-14.2,2.87
		C45.67,96.1,40.24,89.8,37.64,80.97z"/>
	<path class="st2" d="M35.06,97.31c0,0-7.81,7.61,12.45,20.14c0,0,11.34-6.53,11.52-16.57c0,0-7.82,6.02-12.31,7.35
		C46.72,108.24,43.11,107.01,35.06,97.31z"/>
	<path class="st2" d="M35.93,112.72c0,0-5.37,10.12,16.8,14.46c0,0,9.06-2.55,6.59-16.97c0,0-6.96,10.48-8.73,11.12
		C50.58,121.32,41.62,119.03,35.93,112.72z"/>
	<path class="st2" d="M120.54,168.65"/>
	<path class="st2" d="M134.88,164.62c0,0-10.73-5.22-15.32-5.99c-0.35-0.06-0.58-0.07-0.88-0.08c-1.44-0.06-3.69-0.23-7.88,2.96
		l0.58,0.3c0,0,12.22,6.53,14.4,11.42c0.12,0.28,0.34,0.5,0.6,0.65c1.56,0.9,6.96,3.16,13.05-3.73
		C139.44,170.14,141.72,168.07,134.88,164.62z M134.68,173.28c0,0-2.77,1.65-6.48,0.64c-0.13-0.04-0.26-0.09-0.38-0.17v0
		c-0.6-0.37-0.86-1.12-0.62-1.78c0.62-1.66,2.32-4.48,6.84-4.83c0.05,0,0.1-0.01,0.15,0c0.56,0.01,4.05,0.1,4.53,1.26
		C138.72,168.4,140.58,170.19,134.68,173.28z"/>
	<path class="st2" d="M126.59,150.7c1.87-4.13-0.85-12.32-0.85-12.32c-4.31,13.48-36.11,21.22-40.53,23.21
		c-3.96,1.78-9.1,5.08-10.14,5.85c-0.13,0.09-0.72,0.47-0.84,0.58c-0.67,0.59-1.13,1.01-1.58,1.43c-1.03,0.94-1.18,2.54-0.28,3.61
		c2.3,2.73,9.11,2.08,12.38,1.58c1.1-0.17,2.13-0.66,2.95-1.42c2.67-2.49,9.62-8.63,17.57-12.9c10.18-5.47,26.39-2.35,26.39-2.35
		c10.72,1.96,10.85-3.46,10.85-3.46C137.08,155.56,126.59,150.7,126.59,150.7z M86.93,172.87c-1.97,2.15-8.3,1.57-11.16,0.67
		c-1.55-0.49-4.92-3.6,0.28-5.33c5.2-1.73,9.82,1.25,10.96,4.18C87.01,172.38,87.01,172.78,86.93,172.87z"/>
	<path class="st2" d="M129.19,149.7c0,0-1.42-13.5,5.01-19.28c0,0-0.16,2.61,2.05,14.9c0,0,3.2,0.9,13.23,0.56
		C149.47,145.88,151.14,155.59,129.19,149.7z"/>
	<path class="st2" d="M139.67,123.47c0,0-6.77,4.47-0.76,18.9c0,0,20.64,4.5,19.98-7.26c0,0-13.92,2.48-14.69,1.37
		C144.21,136.48,139.91,126.93,139.67,123.47z"/>
	<path class="st2" d="M142.78,115.38c0,0-4.16,4.99,4.88,18.42c0,0,21.33-1.86,19.12-11.27c0,0-12.06,5.26-15.24,4.47
		C151.55,127,145.38,120.96,142.78,115.38z"/>
	<path class="st2" d="M146,107.15c0,0-2.06,8.96,7.04,16.32c0,0,20.31-5.35,15.85-15.71c0,0-10.81,9.99-13.1,9.67
		C155.79,117.43,147.91,110.35,146,107.15z"/>
	<path class="st2" d="M145,97.74c0,0,2.25,9.36,12.41,15.33c0,0,17.53-12.25,10.4-21.24c0,0-7.89,12.02-9.73,12.42
		C158.09,104.25,147.21,100,145,97.74z"/>
	<path class="st2" d="M142.78,89.54c0,0,3.24,8.16,15.16,9.82c0,0,16.08-16.78,5.32-23.77c0,0-3.57,14.18-5.6,16.41
		C157.67,92,145.38,91.7,142.78,89.54z"/>
	<path class="st2" d="M138.67,80.06c0,0,1.19,8.52,18.12,7.65c0,0,7.41-22.52-3.14-23.48c0,0,0.6,14.5-0.09,15.31
		C153.56,79.54,154.19,82.16,138.67,80.06z"/>
	<path class="st2" d="M128.86,72.1c0,0,2.17,8.02,20.13,4.74c0,0,4.31-14.43,0-19.52c-0.74-0.87-1.43-1.18-3.99-2.22
		c0,0,1.51,14.16-0.94,15.79C144.06,70.89,131.87,74.02,128.86,72.1z"/>
	<path class="st2" d="M118.48,64.67c0,0,3.98,9.1,23.62,2.7c0,0,2.53-22.04-13.46-19.82c0,0,7.2,10.75,6.14,12.85
		C133.72,62.49,131.25,66.07,118.48,64.67z"/>
</g>
<path class="st3" d="M102.93,137.03c-17.63,0-31.98-14.45-31.98-32.21c0-17.76,14.35-32.21,31.98-32.21
	c12.71,0,23.72,7.51,28.87,18.36h4.16c-5.4-13.02-18.17-22.18-33.03-22.18c-19.73,0-35.78,16.17-35.78,36.04
	c0,19.87,16.05,36.04,35.78,36.04c14.86,0,27.63-9.17,33.03-22.18h-4.16C126.65,129.52,115.65,137.03,102.93,137.03z"/>
<text transform="matrix(1 0 0 1 192.4534 141.4106)" class="st0 st4 st5">L’assurance d’une vie bien protégée !</text>
</svg>
